<svg width="445" height="508" viewBox="0 0 445 508" fill="none" xmlns="http://www.w3.org/2000/svg">
<path fill-rule="evenodd" clip-rule="evenodd" d="M65.9132 172.253C69.8148 171.092 73.89 170.59 77.9415 170.764C90.2078 173.158 102.283 176.393 114.103 180.454C132.678 187.41 151.923 193.04 168.949 204.135C176.498 209.101 184.422 213.449 192.652 217.178C206.154 223.196 219.747 219.726 232.956 215.593C284.781 198.791 327.501 169.354 356.979 122.743C365.307 109.245 371.62 94.3132 379.191 80.2426C380.695 77.4401 383.706 73.5876 386.062 73.5534C389.645 73.9706 392.871 75.9209 394.893 78.8975C401.394 89.5379 404.043 102.071 402.427 114.443C401.087 125.785 397.512 136.773 391.931 146.751C391.024 149.223 390.345 151.756 389.895 154.35C394.689 154.041 399.699 154.105 404.243 153.483C408.788 152.862 412.799 153.516 413.813 157.834C414.681 161.394 414.038 165.164 412.009 168.228C403.235 178.489 393.719 188.184 384.367 197.921C382.1 200.239 379.397 202.09 375.818 205.055L387.832 206.102C388.355 206.242 388.971 205.706 389.521 205.748C394.105 206.223 399.722 206.502 401.093 211.582C402.464 216.661 398.917 219.704 394.243 221.85C380.71 228.629 367.271 235.713 353.833 242.657C353.013 243.103 352.253 243.653 350.697 244.689L355.951 246.518C358.76 247.603 361.89 247.688 361.774 252.369C361.658 257.05 361.225 259.387 356.706 260.628C343.444 264.239 330.25 267.99 316.995 271.637C314.415 272.312 311.951 272.878 308.571 273.532C311.157 278.131 313.57 282.788 308.649 286.97C307.245 288.223 305.543 289.081 303.695 289.444C294.24 290.676 284.695 291.657 274.845 292.731C274.778 298.406 269.871 300.245 264.98 301.246L264.996 301.25C259.118 302.338 253.165 302.985 247.195 303.172C244.139 303.334 243.093 303.579 243.03 307.276C242.122 335.111 236.923 362.62 227.638 388.84C218.425 416.36 202.73 440.882 187.721 465.587C186.855 467.054 182.524 467.4 180.306 466.525C178.901 466.149 177.618 461.653 178.431 460.19C182.431 452.451 187.184 445.106 191.586 437.632C209.742 407.324 223.475 375.551 228.262 340.103C229.996 327.291 230.829 314.377 231.758 301.436C231.665 299.168 232.518 296.962 234.109 295.339C235.716 293.721 237.902 292.817 240.167 292.864C246.305 292.441 252.495 292.348 258.593 291.548L258.598 291.531C260.484 290.898 262.001 289.483 262.787 287.662C265.41 282.251 268.729 280.583 277.073 280.752C283.547 280.84 290.008 280.452 297.218 280.212C295.116 277.337 293.041 275.607 292.473 273.475L292.485 273.496C292.008 271.354 292.49 269.101 293.771 267.325C295.069 265.553 297.074 264.409 299.249 264.203L340.076 255.174L340.092 255.178C341.486 254.746 342.879 254.191 344.19 253.544C342.326 252.922 340.5 252.152 338.747 251.245C333.49 247.857 334.469 240.674 340.94 237.241C351.305 231.961 361.82 226.966 372.24 221.806L372.244 221.789C374.869 220.688 377.176 218.942 378.961 216.723C375.417 216.614 371.901 216.337 368.38 216.34C364.238 217.157 360.14 214.675 358.952 210.608C357.402 205.481 360.393 203.269 363.23 200.789C376.758 188.93 390.363 177.178 403.981 165.377L402.738 163.153C396.6 164.293 390.555 165.809 384.613 167.72C381.492 169.108 377.831 168.128 375.822 165.365C373.112 162.992 374.249 161.037 375.408 158.282L375.424 158.286C381.231 145.829 386.24 133.018 390.397 119.926C392.468 112.196 391.101 103.439 390.777 95.1721C390.699 92.9791 388.979 90.8366 387.853 88.503C382.334 98.7078 377.177 108.344 371.968 117.913C358.621 142.626 340.469 164.423 318.583 182.047C290.12 204.934 256.837 221.048 221.229 229.161C205.521 233.079 188.866 229.545 176.107 219.575C160.549 208.418 143.307 199.821 125.028 194.118C111.768 189.811 98.6068 185.006 85.2877 180.789C81.3823 179.743 77.1433 179.745 73.251 178.65L73.2391 178.629C70.5161 177.549 67.8928 176.163 65.4416 174.526L65.9132 172.253Z" fill="#091E42"/>
<path fill-rule="evenodd" clip-rule="evenodd" d="M307.943 104.171C308.433 104.827 310.102 108.79 309.355 109.814C307.728 111.97 306.12 114.142 304.519 116.319L302.92 118.496C289.428 136.893 276.113 155.36 255.362 167.123C254.227 167.764 252.883 168.4 251.414 169.179L251.414 169.18C250.542 167.862 249.263 166.82 249.444 166.011L249.428 166.007C249.802 164.481 250.568 163.059 251.662 161.918C261.253 152.648 271.48 143.95 280.452 134.181C287.834 126.102 293.861 116.803 300.509 108.003C301.318 106.943 301.901 105.421 303.033 104.919C304.149 104.414 307.453 103.515 307.943 104.171V104.171ZM273.262 113.259C273.745 115.312 275.287 118.507 274.569 119.293C267.822 126.895 261.08 134.48 253.942 141.977C253.065 142.966 250.951 142.82 247.659 143.669C248.551 141.32 249.668 139.048 250.979 136.898C256.476 129.714 262.053 122.621 267.893 115.721C269.068 114.339 271.493 114.044 273.262 113.259V113.259ZM384.282 313.796L384.282 313.797C374.416 320.825 362.761 324.925 350.653 325.616C349.761 325.639 348.858 324.833 347.951 323.959L347.587 323.607C347.163 323.197 346.738 322.794 346.313 322.476L346.329 322.481C347.451 321.365 348.71 320.39 350.065 319.581C358.474 316.291 367.185 313.64 375.357 309.866C380.082 307.651 382.574 308.214 384.282 313.796V313.796ZM382.217 277.196C386.076 282.462 385.876 282.881 380.387 286.115L380.392 286.099C364.799 295.615 347.702 302.385 329.81 306.108C326.46 306.523 323.067 306.575 319.701 306.268L319.52 304.33L382.217 277.196Z" fill="#42A3F3"/>
</svg>
