<svg width="301" height="282" viewBox="0 0 301 282" fill="none" xmlns="http://www.w3.org/2000/svg">
<path fill-rule="evenodd" clip-rule="evenodd" d="M63.8338 63.3943C63.8834 63.3392 63.9389 63.2892 63.9976 63.2474C67.1331 60.1678 71.0335 61.1251 73.705 62.1219C75.849 62.9223 78.5965 63.467 79.8907 62.8764C83.9349 61.0354 88.7556 62.0855 91.6113 65.4347C94.2132 68.482 94.3985 72.5437 92.0921 76.0334C91.8284 76.4372 91.5278 76.8236 91.201 77.1865C90.3045 78.1822 89.1891 79.0123 87.9689 79.5852C87.4262 79.8377 86.8861 80.0347 86.3594 80.2228C85.3929 80.5722 84.478 80.8995 83.7679 81.5479C83.1998 82.3191 82.9644 83.2635 82.7209 84.2637C82.5889 84.8072 82.4523 85.3676 82.2551 85.9311C81.6545 87.6664 80.5515 89.2592 79.1567 90.4055C75.93 93.0667 71.8712 93.3071 68.5657 91.0353C64.9359 88.5396 63.385 83.8579 64.7933 79.6436C65.2454 78.295 64.4164 75.6195 63.3963 73.5709C62.1228 71.0156 60.7631 67.2367 63.5036 63.7961C63.539 63.7334 63.5802 63.6759 63.6299 63.6207C63.6456 63.6033 63.7191 63.5276 63.7321 63.513L63.8338 63.3943ZM73.721 41.8835C73.9406 41.6397 74.186 41.4138 74.4464 41.2121C75.6877 40.2481 77.255 39.8617 78.9738 40.0953C81.3833 40.4198 83.7441 41.9252 85.4517 44.2145C88.186 47.8854 88.4509 52.4657 86.0776 55.1015C85.858 55.3454 85.6127 55.5712 85.3522 55.773C84.1054 56.7372 82.5436 57.1234 80.8248 56.8898C78.4153 56.5652 76.0545 55.0598 74.3469 52.7706C71.6126 49.0996 71.3477 44.5194 73.721 41.8835V41.8835ZM43.1031 75.8879C45.4765 73.252 50.0565 73.0341 53.996 75.3723C56.4538 76.8284 58.1951 79.0217 58.7695 81.3786C59.1814 83.0637 58.9606 84.6573 58.132 85.998C57.9586 86.2781 57.7596 86.5458 57.5401 86.7896C55.1667 89.4255 50.5867 89.6434 46.6472 87.3052C44.192 85.8462 42.4536 83.6555 41.8734 81.2934C41.4618 79.6139 41.6796 78.0176 42.5112 76.6795C42.6846 76.3994 42.8836 76.1317 43.1031 75.8879V75.8879ZM39.532 55.9306C41.8837 52.8285 47.1834 52.938 51.3118 56.0823C53.2765 57.5779 54.7098 59.5413 55.3548 61.6096C56.0367 63.8005 55.7627 65.8561 54.5879 67.4002C54.4999 67.5154 54.4065 67.6311 54.3098 67.7385C51.8319 70.4905 46.781 70.274 42.8082 67.2488C38.6595 64.086 37.1873 59.0076 39.532 55.9306V55.9306ZM54.8818 52.1164C51.3205 48.3423 50.6499 43.0917 53.4997 40.4171C56.3174 37.7608 61.522 38.694 65.0982 42.4923C68.5222 46.127 69.2628 51.1305 66.7876 53.8795C66.6909 53.9869 66.5884 54.0891 66.4803 54.1916C65.0702 55.5239 63.0516 56.0087 60.8015 55.5595C58.6771 55.1342 56.5718 53.9114 54.8818 52.1164V52.1164Z" fill="#091E42"/>
<path fill-rule="evenodd" clip-rule="evenodd" d="M63.5229 19.3249C62.6397 18.5297 61.2817 18.6009 60.4865 19.4841C59.6913 20.3672 59.7625 21.7253 60.6456 22.5204L65.4327 26.8307C64.8664 27.2023 64.3073 27.5974 63.7809 28.0502L63.369 27.6793C57.6458 22.526 49.9994 22.5518 42.2253 27.6722L36.3648 22.3954C35.4816 21.6002 34.1236 21.6714 33.3284 22.5545C32.5332 23.4377 32.6044 24.7957 33.4875 25.5909L38.6927 30.2777C34.6914 33.5292 31.2641 37.3481 28.4669 41.6722L23.2336 36.9601C22.3505 36.1649 20.9924 36.2361 20.1972 37.1193C19.402 38.0024 19.4732 39.3605 20.3564 40.1556L26.2543 45.4662C22.0584 53.6845 22.8581 61.2308 28.5503 66.356L28.9559 66.7213C28.5304 67.3383 28.1716 67.9815 27.8403 68.6381L23.0158 64.2941C22.1326 63.4989 20.7746 63.5701 19.9794 64.4532C19.1842 65.3364 19.2554 66.6945 20.1385 67.4896L26.3642 73.0953C25.4459 78.3825 27.1714 84.0158 31.4467 87.8652L247.261 278.338C248.144 279.133 249.502 279.062 250.297 278.179C251.092 277.296 251.021 275.937 250.138 275.142L34.3299 84.6695C30.0204 80.7891 29.2417 74.4431 32.2076 69.6435L32.4229 69.8374C33.3061 70.6326 34.6642 70.5614 35.4593 69.6782C36.2545 68.7951 36.1833 67.437 35.3002 66.6419L31.4338 63.1605C25.7231 58.0186 27.936 51.0549 30.8099 46.0993C30.8127 46.0962 30.8152 46.0872 30.818 46.084C30.8208 46.0809 30.8208 46.0809 30.8205 46.075C32.0329 43.9628 33.4008 41.9792 34.9147 40.1158L38.5441 43.3837C39.4272 44.1789 40.7853 44.1077 41.5804 43.2246C42.3756 42.3414 42.3045 40.9833 41.4213 40.1882L37.7858 36.9147C39.3979 35.2811 41.1443 33.7683 43.0164 32.3857C43.2543 32.2721 43.4719 32.1121 43.6605 31.9089C48.271 28.5958 54.8681 25.8062 60.5041 30.8808L62.2423 32.4459C62.3222 32.5517 62.4108 32.6541 62.5106 32.744L64.4735 34.5114C65.3567 35.3066 66.7147 35.2354 67.5099 34.3522C68.3051 33.4691 68.2339 32.111 67.3508 31.3159L66.995 30.9955C71.4336 27.5219 77.8699 27.6158 82.2014 31.5158L247.261 182.338C248.144 183.133 249.502 183.062 250.297 182.179C251.092 181.296 251.021 179.937 250.138 179.142L85.0695 28.3177C80.7506 24.4289 74.894 23.3201 69.6769 24.8665L63.5229 19.3249Z" fill="#091E42" stroke="#091E42" stroke-width="2"/>
</svg>
