<svg width="40" height="40" viewBox="0 0 40 40" fill="none" xmlns="http://www.w3.org/2000/svg">
<rect width="40" height="40" rx="18" fill="#2BC2FF"/>
<path d="M20.1 16.0078C17.6 16.0078 15.6078 18.0391 15.6078 20.5C15.6078 23 17.6 24.9922 20.1 24.9922C22.5609 24.9922 24.5922 23 24.5922 20.5C24.5922 18.0391 22.5609 16.0078 20.1 16.0078ZM20.1 23.4297C18.4984 23.4297 17.1703 22.1406 17.1703 20.5C17.1703 18.8984 18.4594 17.6094 20.1 17.6094C21.7016 17.6094 22.9906 18.8984 22.9906 20.5C22.9906 22.1406 21.7016 23.4297 20.1 23.4297ZM25.8031 15.8516C25.8031 15.2656 25.3344 14.7969 24.7484 14.7969C24.1625 14.7969 23.6938 15.2656 23.6938 15.8516C23.6938 16.4375 24.1625 16.9062 24.7484 16.9062C25.3344 16.9062 25.8031 16.4375 25.8031 15.8516ZM28.7719 16.9062C28.6938 15.5 28.3813 14.25 27.3656 13.2344C26.35 12.2188 25.1 11.9062 23.6938 11.8281C22.2484 11.75 17.9125 11.75 16.4672 11.8281C15.0609 11.9062 13.85 12.2188 12.7953 13.2344C11.7797 14.25 11.4672 15.5 11.3891 16.9062C11.3109 18.3516 11.3109 22.6875 11.3891 24.1328C11.4672 25.5391 11.7797 26.75 12.7953 27.8047C13.85 28.8203 15.0609 29.1328 16.4672 29.2109C17.9125 29.2891 22.2484 29.2891 23.6938 29.2109C25.1 29.1328 26.35 28.8203 27.3656 27.8047C28.3813 26.75 28.6938 25.5391 28.7719 24.1328C28.85 22.6875 28.85 18.3516 28.7719 16.9062ZM26.8969 25.6562C26.6234 26.4375 25.9984 27.0234 25.2563 27.3359C24.0844 27.8047 21.35 27.6875 20.1 27.6875C18.8109 27.6875 16.0766 27.8047 14.9438 27.3359C14.1625 27.0234 13.5766 26.4375 13.2641 25.6562C12.7953 24.5234 12.9125 21.7891 12.9125 20.5C12.9125 19.25 12.7953 16.5156 13.2641 15.3438C13.5766 14.6016 14.1625 14.0156 14.9438 13.7031C16.0766 13.2344 18.8109 13.3516 20.1 13.3516C21.35 13.3516 24.0844 13.2344 25.2563 13.7031C25.9984 13.9766 26.5844 14.6016 26.8969 15.3438C27.3656 16.5156 27.2484 19.25 27.2484 20.5C27.2484 21.7891 27.3656 24.5234 26.8969 25.6562Z" fill="white"/>
</svg>
